<svg xmlns="http://www.w3.org/2000/svg" width="4000" height="1096" viewBox="0 0 4000 1096" version="1.1">
	<path d="M 0 20.333 C 0 35.884, 0.294 40.688, 1.250 40.759 C 1.938 40.810, 12.400 41.561, 24.500 42.427 C 36.600 43.294, 49.200 44.442, 52.500 44.979 C 55.800 45.515, 66.498 46.855, 76.274 47.955 C 89.028 49.391, 95.806 50.642, 100.274 52.388 C 103.698 53.726, 109.058 55.540, 112.183 56.419 C 115.309 57.298, 119.134 59.058, 120.683 60.330 C 122.233 61.602, 126.052 63.661, 129.171 64.906 C 132.290 66.150, 135.606 68.012, 136.539 69.043 C 137.472 70.074, 140.368 71.626, 142.974 72.491 C 150.771 75.081, 157.160 83.965, 160.516 96.881 C 161.747 101.622, 163.642 107.525, 164.726 110 C 167.169 115.575, 167.623 118.006, 169.695 136.603 C 171.147 149.637, 171.400 169.825, 171.720 298.066 C 172.076 440.387, 172.031 444.761, 170.182 449.075 C 168.748 452.422, 160.817 460.971, 138.010 483.758 C 121.363 500.391, 107.360 514, 106.892 514 C 105.635 514, 102 521.562, 102 524.176 C 102 525.804, 111.313 535.769, 135.448 559.966 C 153.845 578.410, 169.370 594.767, 169.948 596.315 C 170.666 598.235, 171 643.947, 171 740.094 C 171 911.455, 170.632 919.785, 162.027 943 C 160.294 947.675, 158.027 952.405, 156.989 953.510 C 155.951 954.616, 153.977 957.991, 152.602 961.010 C 146.803 973.741, 138.700 981.303, 127.362 984.566 C 124.138 985.493, 119.700 987.294, 117.500 988.568 C 115.300 989.842, 109.258 991.807, 104.074 992.936 C 98.889 994.065, 92.358 995.845, 89.560 996.892 C 81.681 999.839, 67.993 1001.189, 37 1002.075 C 21.325 1002.523, 6.587 1003.186, 4.250 1003.549 L -0 1004.210 0 1022.022 L 0 1039.834 4.996 1040.906 C 8.468 1041.650, 85.227 1041.991, 256.746 1042.024 L 503.500 1042.071 506.250 1039.020 C 508.900 1036.080, 509 1035.566, 509 1024.927 C 509 1011.718, 507.654 1005.475, 504.338 1003.302 C 502.728 1002.247, 498.935 1001.626, 492.723 1001.402 C 473.095 1000.692, 453.155 998.841, 445.350 997.004 C 440.868 995.948, 431.941 994.185, 425.512 993.086 C 418.055 991.810, 412.316 990.228, 409.661 988.716 C 407.373 987.412, 403.330 985.543, 400.677 984.562 C 398.024 983.581, 394.481 981.591, 392.804 980.139 C 385.613 973.915, 378.700 966.171, 376.457 961.827 C 375.130 959.257, 372.963 955.560, 371.640 953.611 C 370.317 951.662, 368.921 948.365, 368.537 946.284 C 368.154 944.203, 366.561 939.291, 364.997 935.368 C 358.060 917.960, 357.038 890.873, 357.017 723.717 L 357 589.934 359.424 585.217 C 361.232 581.699, 366.211 576.687, 379.012 565.500 C 396.493 550.222, 402.162 545.165, 407.500 540.084 C 409.150 538.513, 415 533.307, 420.500 528.514 C 426 523.722, 431.708 518.608, 433.185 517.150 C 444.711 505.772, 444.942 505.600, 448.630 505.600 C 452.585 505.600, 452.651 505.661, 461.500 517.546 C 464.250 521.239, 467.962 525.871, 469.750 527.839 C 471.537 529.807, 473 531.758, 473 532.175 C 473 532.592, 474.462 534.458, 476.250 536.321 C 478.038 538.184, 481.525 542.307, 484 545.483 C 486.475 548.659, 490.525 553.666, 493 556.611 C 497.915 562.459, 503.320 569.188, 508.300 575.659 C 512.373 580.952, 519.494 589.968, 524 595.537 C 525.925 597.917, 529.525 602.382, 532 605.459 C 534.475 608.537, 538.300 613.272, 540.500 615.982 C 542.700 618.691, 546.300 623.220, 548.500 626.046 C 550.700 628.873, 554.075 633.137, 556 635.524 C 557.925 637.911, 561.525 642.382, 564 645.459 C 566.475 648.537, 570.300 653.290, 572.500 656.021 C 574.700 658.753, 578.300 663.243, 580.500 666 C 582.700 668.757, 586.300 673.213, 588.500 675.902 C 590.700 678.590, 594.300 683.108, 596.500 685.941 C 598.700 688.774, 602.300 693.318, 604.500 696.040 C 606.700 698.761, 610.300 703.243, 612.500 706 C 614.700 708.757, 618.300 713.207, 620.500 715.888 C 622.700 718.570, 626.525 723.340, 629 726.488 C 637.032 736.704, 640.844 741.434, 643.919 745 C 645.579 746.925, 648.189 750.152, 649.719 752.171 C 653.439 757.082, 659.942 765.273, 665.461 772 C 667.943 775.025, 671.110 779.188, 672.499 781.250 C 673.888 783.313, 675.464 785, 676 785 C 676.536 785, 678.179 786.913, 679.650 789.250 C 681.121 791.587, 683.348 794.625, 684.599 796 C 688.066 799.810, 695.228 808.857, 697.765 812.631 C 699.010 814.484, 700.430 816, 700.920 816 C 701.409 816, 702.997 818.025, 704.447 820.500 C 705.898 822.975, 707.486 825, 707.976 825 C 708.467 825, 710.135 826.770, 711.684 828.933 C 718.228 838.074, 724.179 845.642, 732.964 856 C 735.769 859.306, 739.238 863.601, 747.507 874 C 754.532 882.835, 758.050 887.542, 759.762 890.398 C 760.718 891.991, 762.675 894.691, 764.111 896.398 C 765.548 898.104, 767.513 901.075, 768.479 903 C 769.446 904.925, 771.366 908.008, 772.747 909.852 C 774.127 911.695, 775.883 915.284, 776.648 917.827 C 777.414 920.369, 779.166 924.075, 780.543 926.062 C 791.988 942.577, 781.233 974.020, 760.500 984.656 C 757.750 986.066, 754.575 988.067, 753.444 989.102 C 752.314 990.137, 748.264 991.708, 744.444 992.593 C 740.625 993.478, 734.350 995.283, 730.500 996.605 C 721.297 999.763, 713.110 1000.806, 691.022 1001.636 C 666.670 1002.550, 667.702 1001.735, 666.951 1020.660 C 666.350 1035.812, 666.742 1038.129, 670.295 1040.458 C 673.898 1042.819, 1158.033 1042.864, 1161.635 1040.504 C 1164.865 1038.387, 1165.251 1036.004, 1164.830 1020.787 C 1164.318 1002.294, 1164.101 1002.048, 1146.604 1000.069 C 1140.301 999.356, 1134.128 997.922, 1129.604 996.120 C 1125.697 994.564, 1120.783 992.974, 1118.683 992.587 C 1114.624 991.840, 1097.103 983.162, 1090.610 978.683 C 1088.471 977.207, 1086.124 976, 1085.395 976 C 1084.666 976, 1082.591 974.713, 1080.785 973.141 C 1078.978 971.568, 1075.475 969.376, 1073 968.269 C 1065.730 965.019, 1032.101 930.240, 1004.195 897.113 C 1002.163 894.700, 999.082 891.100, 997.348 889.113 C 988.278 878.714, 986.267 876.280, 984.771 873.891 C 983.873 872.456, 981.420 869.208, 979.319 866.673 C 977.219 864.139, 973.700 859.726, 971.500 856.866 C 969.300 854.007, 966.347 850.505, 964.938 849.084 C 963.529 847.663, 961.519 845.038, 960.472 843.250 C 959.425 841.463, 958.271 840, 957.907 840 C 957.543 840, 954.828 836.800, 951.873 832.889 C 943.114 821.297, 940.982 818.632, 938.950 816.739 C 937.889 815.751, 936.330 813.605, 935.485 811.971 C 934.640 810.337, 933.552 809, 933.068 809 C 932.584 809, 930.458 806.699, 928.344 803.887 C 926.230 801.075, 923.150 797.080, 921.500 795.009 C 919.850 792.939, 916.082 788.040, 913.127 784.123 C 910.172 780.205, 907.457 777, 907.093 777 C 906.729 777, 905.575 775.538, 904.528 773.750 C 903.481 771.962, 901.471 769.343, 900.062 767.929 C 898.653 766.515, 895.475 762.755, 893 759.573 C 890.525 756.392, 886.925 751.842, 885 749.463 C 883.075 747.083, 879.475 742.618, 877 739.541 C 874.525 736.463, 870.700 731.728, 868.500 729.018 C 866.300 726.309, 862.700 721.780, 860.500 718.954 C 858.300 716.127, 854.925 711.863, 853 709.476 C 851.075 707.089, 847.475 702.618, 845 699.541 C 842.525 696.463, 838.700 691.710, 836.500 688.979 C 834.300 686.247, 830.700 681.757, 828.500 679 C 826.300 676.243, 822.700 671.787, 820.500 669.098 C 818.300 666.410, 814.700 661.892, 812.500 659.059 C 807.362 652.443, 800.888 644.448, 797.069 640 C 795.415 638.075, 792.811 634.842, 791.281 632.815 C 786.246 626.144, 782.621 621.559, 779.036 617.324 C 777.091 615.027, 773.700 610.821, 771.500 607.977 C 769.300 605.133, 766.150 601.331, 764.500 599.527 C 762.850 597.723, 759.025 592.967, 756 588.958 C 749.631 580.515, 744.394 573.975, 739.984 568.952 C 738.270 567.001, 736.470 564.751, 735.985 563.952 C 735.499 563.153, 733.934 561.150, 732.507 559.500 C 724.979 550.795, 721.175 546.019, 719.119 542.692 C 717.864 540.661, 716.536 538.997, 716.168 538.993 C 715.801 538.989, 714.397 537.302, 713.050 535.243 C 711.702 533.184, 709.452 530.326, 708.050 528.891 C 706.647 527.456, 703.700 523.948, 701.500 521.095 C 699.300 518.242, 695.700 513.732, 693.500 511.072 C 691.300 508.412, 687.475 503.655, 685 500.500 C 682.525 497.345, 678.700 492.570, 676.500 489.888 C 672.704 485.261, 669.724 481.544, 661.215 470.818 C 657.688 466.373, 653.517 461.173, 644.500 449.979 C 642.300 447.247, 638.797 442.872, 636.715 440.256 C 634.632 437.640, 631.257 433.400, 629.215 430.834 C 627.172 428.267, 623.250 423.392, 620.500 420 C 615.436 413.754, 611.154 408.396, 604.285 399.715 C 602.203 397.084, 598.876 393.034, 596.892 390.715 C 587.402 379.628, 588.145 377.837, 609.700 359.833 C 614.366 355.936, 620.279 350.786, 622.841 348.387 C 625.404 345.988, 629.425 342.333, 631.777 340.263 C 634.129 338.193, 638.043 334.700, 640.473 332.500 C 642.904 330.300, 646.968 326.700, 649.504 324.500 C 652.039 322.300, 655.843 318.925, 657.956 317 C 660.069 315.075, 663.981 311.623, 666.649 309.329 C 669.317 307.035, 690.400 288.448, 713.500 268.026 C 769.272 218.717, 768.180 219.662, 788.093 203.500 C 791.481 200.750, 798.358 194.974, 803.376 190.665 C 819.093 177.169, 819.794 176.582, 824.463 173 C 826.973 171.075, 830.972 167.925, 833.349 166 C 837.692 162.483, 844.506 157.394, 850.355 153.298 C 852.085 152.086, 854.950 149.724, 856.722 148.048 C 858.493 146.371, 860.379 145, 860.911 145 C 861.443 145, 863.894 143.312, 866.358 141.250 C 871.085 137.293, 877.526 132.998, 884.377 129.235 C 886.645 127.990, 890.300 125.687, 892.500 124.120 C 894.700 122.552, 897.625 120.938, 899 120.533 C 900.375 120.128, 903.075 118.563, 905 117.054 C 906.925 115.546, 910.674 113.351, 913.332 112.176 C 915.989 111.001, 919.511 108.906, 921.159 107.520 C 922.806 106.134, 924.749 105, 925.476 105 C 926.204 105, 929.190 103.391, 932.112 101.425 C 935.034 99.458, 939.011 97.187, 940.949 96.377 C 942.887 95.567, 945.383 94.049, 946.496 93.003 C 947.609 91.958, 951.009 90.002, 954.050 88.657 C 957.092 87.311, 960.139 85.538, 960.822 84.715 C 961.504 83.892, 964.411 82.212, 967.281 80.980 C 970.152 79.748, 973.724 77.715, 975.219 76.461 C 976.714 75.207, 980.314 73.398, 983.219 72.441 C 986.124 71.484, 990.750 69.473, 993.500 67.972 C 996.250 66.470, 1000.693 64.717, 1003.373 64.076 C 1006.052 63.434, 1010.327 61.861, 1012.873 60.579 C 1015.418 59.298, 1020.875 57.493, 1025 56.568 C 1029.125 55.643, 1035.650 53.753, 1039.500 52.368 C 1043.537 50.915, 1052.609 49.031, 1060.932 47.915 C 1076.462 45.833, 1078.185 45.079, 1080.638 39.282 C 1082.116 35.790, 1082.457 20.708, 1081.353 7.651 L 1080.707 0 860.996 -0 L 641.285 -0 640.642 6.147 C 640.289 9.527, 640 17.977, 640 24.924 C 640 42.885, 638.499 41.716, 662.242 42.242 C 679.797 42.630, 682.930 42.986, 697.672 46.264 C 711.363 49.308, 714.641 50.408, 719.035 53.430 C 721.889 55.394, 724.736 57.009, 725.362 57.020 C 726.875 57.046, 735.554 65.545, 740.283 71.631 C 742.363 74.309, 745.810 78.692, 747.941 81.371 C 750.073 84.050, 753.450 89.417, 755.446 93.297 C 759.019 100.242, 759.066 100.487, 758.443 108.926 C 758.095 113.642, 756.979 121.325, 755.964 126 C 754.949 130.675, 753.401 138.219, 752.525 142.765 C 750.263 154.507, 742.372 170.152, 731.825 183.805 C 729.996 186.173, 726.903 189.998, 724.952 192.305 C 723.001 194.612, 720.702 197.625, 719.843 199 C 715.974 205.194, 669.391 251.279, 644.537 273.500 C 640.231 277.350, 634.636 282.412, 632.104 284.749 C 629.572 287.085, 625.600 290.685, 623.279 292.749 C 620.957 294.812, 617.807 297.678, 616.279 299.117 C 613.309 301.913, 596.003 317.198, 587.129 324.862 C 584.175 327.413, 580.032 331.075, 577.921 333 C 575.811 334.925, 571.775 338.525, 568.953 341 C 566.130 343.475, 562.624 346.679, 561.161 348.120 C 559.697 349.561, 547.475 360.490, 534 372.407 C 520.525 384.324, 507.925 395.558, 506 397.371 C 504.075 399.185, 496.425 405.983, 489 412.480 C 481.575 418.976, 473.925 425.794, 472 427.629 C 470.075 429.465, 466.250 432.948, 463.500 435.370 C 460.750 437.791, 452.875 444.820, 446 450.990 C 432.022 463.535, 429.846 464.947, 427.499 462.999 C 426.097 461.835, 425.967 448.017, 426.219 326.602 L 426.500 191.500 430.334 173 C 432.907 160.587, 434.979 153.098, 436.632 150.241 C 437.987 147.898, 439.745 144.139, 440.540 141.887 C 443.458 133.617, 460.963 115.303, 468.729 112.395 C 471.353 111.412, 475.111 109.562, 477.080 108.284 C 479.262 106.867, 484.097 105.359, 489.463 104.423 C 494.304 103.578, 500.118 102.261, 502.383 101.496 C 511.297 98.486, 517.542 97.828, 544.886 97.016 C 580.516 95.957, 577.366 97.962, 577.854 76.031 L 578.207 60.116 575.649 57.558 C 572.585 54.494, 571.923 54.431, 568.861 56.915 C 566.741 58.635, 566.489 59.682, 566.393 67.165 C 566.239 79.109, 566.310 78.841, 562.750 81.011 C 559.827 82.793, 557.689 82.992, 541.500 82.988 C 522.690 82.983, 506.392 84.067, 487 86.612 C 466.712 89.275, 462.609 90.083, 457 92.521 C 453.975 93.835, 449.475 95.426, 447 96.056 C 439.959 97.847, 427.378 111.681, 424.085 121.253 C 423.059 124.235, 421.448 128.167, 420.505 129.991 C 415.690 139.302, 415.712 138.550, 415.086 313.540 L 414.500 477.580 405.500 486.223 C 400.550 490.976, 392 498.798, 386.500 503.605 C 381 508.412, 374.025 514.695, 371 517.568 C 364.731 523.522, 362.219 524.612, 359.448 522.585 C 357.532 521.185, 357.495 518.255, 357.195 346.331 C 356.835 139.614, 357.377 122.554, 364.856 105.211 C 366.447 101.520, 368.061 97.150, 368.440 95.500 C 370.142 88.112, 386.518 67.307, 393.394 63.799 C 395.619 62.664, 398.577 60.912, 399.969 59.906 C 405.249 56.089, 428.856 49.259, 441 48.035 C 447.325 47.397, 457.675 46.157, 464 45.278 C 470.325 44.400, 481.551 43.709, 488.947 43.744 L 502.393 43.807 505.837 40.363 L 509.281 36.919 508.667 21.209 C 508.329 12.569, 507.763 4.263, 507.410 2.750 L 506.767 0 253.383 0 L 0 0 0 20.333 M 1366.642 6.147 C 1366.289 9.527, 1366 18.017, 1366 25.012 C 1366 43.760, 1365.873 43.660, 1393 46.373 C 1401.525 47.226, 1414.350 48.408, 1421.500 49 C 1428.982 49.620, 1439.382 51.299, 1446 52.955 C 1452.325 54.538, 1460.200 56.362, 1463.500 57.009 C 1474.170 59.100, 1484.815 64.560, 1491 71.117 C 1499.706 80.346, 1502.204 83.775, 1506.598 92.529 C 1511.616 102.526, 1511.209 100.910, 1515.163 126.524 L 1518.402 147.500 1518.951 295.500 C 1519.253 376.900, 1519.119 445.075, 1518.654 447 C 1517.979 449.790, 1510.827 457.515, 1483.404 485.074 C 1452.756 515.873, 1449 519.993, 1449 522.807 C 1449 525.624, 1452.785 529.759, 1483.950 560.993 L 1518.901 596.020 1519.200 601.760 C 1520.144 619.839, 1518.251 901.936, 1517.155 906.500 C 1516.495 909.250, 1514.878 918.577, 1513.563 927.226 C 1512.247 935.875, 1510.501 944.200, 1509.682 945.726 C 1508.863 947.252, 1507.016 950.729, 1505.579 953.454 C 1504.141 956.179, 1502.123 959.329, 1501.095 960.454 C 1500.067 961.579, 1498.271 964.401, 1497.105 966.725 C 1494.675 971.568, 1486.701 980.956, 1483.596 982.630 C 1482.443 983.252, 1479.128 984.262, 1476.228 984.874 C 1473.329 985.487, 1468.794 987.084, 1466.151 988.424 C 1463.507 989.763, 1456.430 991.789, 1450.422 992.925 C 1444.415 994.062, 1437.184 995.874, 1434.353 996.952 C 1428.455 999.200, 1399.322 1002, 1381.838 1002 C 1366.974 1002, 1366.015 1003.350, 1366.006 1024.300 C 1366 1036.578, 1367.136 1041.071, 1370.582 1042.393 C 1371.493 1042.743, 1480.522 1043.033, 1612.869 1043.038 L 1853.500 1043.047 1855.835 1040.369 C 1858.105 1037.765, 1858.161 1037.250, 1857.835 1021.871 C 1857.373 1000.068, 1860.170 1001.837, 1824 1000.476 C 1805.131 999.766, 1802.530 999.412, 1780.005 994.490 C 1762.104 990.578, 1748.389 985.253, 1742.699 980.005 C 1729.365 967.705, 1721.799 959.167, 1720.531 954.987 C 1720.116 953.619, 1718.441 950.132, 1716.808 947.238 C 1714.742 943.576, 1713.398 939.165, 1712.388 932.738 C 1711.589 927.657, 1709.713 920.125, 1708.218 916 L 1705.500 908.500 1705.218 754.500 C 1705.063 669.800, 1705.200 599.426, 1705.521 598.114 C 1705.850 596.774, 1721.423 580.416, 1741.053 560.791 C 1769.550 532.301, 1776.001 525.360, 1776.004 523.177 C 1776.007 520.982, 1769.717 514.283, 1741.099 486 C 1707.458 452.753, 1706.167 451.337, 1705.535 447 C 1705.175 444.525, 1705.043 382.650, 1705.243 309.500 L 1705.606 176.500 1708.282 153.500 C 1712.976 113.156, 1713.949 107.034, 1716.458 102.083 C 1717.744 99.544, 1719.292 95.630, 1719.897 93.384 C 1720.501 91.139, 1722.119 87.772, 1723.491 85.901 C 1724.863 84.030, 1726.870 81.150, 1727.951 79.500 C 1731.154 74.609, 1741.787 65.889, 1746.932 63.934 C 1749.563 62.934, 1753.467 61.206, 1755.608 60.093 C 1757.748 58.980, 1762.875 57.371, 1767 56.517 C 1771.125 55.663, 1777.212 53.890, 1780.526 52.576 C 1787.189 49.935, 1795.235 48.864, 1826.500 46.458 C 1854.736 44.284, 1853.737 44.479, 1856.044 40.696 C 1857.722 37.943, 1857.992 35.627, 1857.988 24 C 1857.985 16.575, 1857.699 8.137, 1857.352 5.250 L 1856.721 -0 1612.003 -0 L 1367.285 0 1366.642 6.147 M 2075.642 6.147 C 2075.289 9.527, 2075 18.077, 2075 25.147 C 2075 42.235, 2076.591 44, 2091.987 44 C 2099.149 44, 2147.263 48.098, 2158 49.622 C 2160.475 49.973, 2164.750 51.077, 2167.500 52.075 C 2170.250 53.072, 2176.304 54.821, 2180.953 55.961 C 2185.602 57.100, 2190.333 58.903, 2191.465 59.967 C 2192.598 61.032, 2195.769 62.879, 2198.512 64.072 C 2201.256 65.265, 2204.850 67.245, 2206.500 68.471 C 2208.150 69.697, 2211.634 71.641, 2214.243 72.791 C 2222.695 76.516, 2229.586 86.956, 2232.946 101.128 C 2234.038 105.732, 2235.868 111.923, 2237.013 114.885 C 2241.991 127.762, 2242.233 135.406, 2242.706 294.242 C 2243.026 402.031, 2242.838 443.462, 2242.011 447.447 C 2240.899 452.803, 2240.436 453.350, 2218.314 475.455 C 2205.905 487.855, 2195.455 498, 2195.092 498 C 2194.728 498, 2193.688 499.259, 2192.779 500.797 C 2191.870 502.336, 2190.023 504.185, 2188.673 504.907 C 2187.324 505.629, 2185.685 507.219, 2185.032 508.441 C 2184.378 509.662, 2182.521 511.442, 2180.905 512.397 C 2178.416 513.867, 2173 522.285, 2173 524.683 C 2173 525.095, 2188.302 540.759, 2207.005 559.491 C 2232.791 585.317, 2241.251 594.387, 2242.005 597.018 C 2243.305 601.549, 2243.299 851.943, 2241.998 884 C 2240.628 917.775, 2239.730 924.799, 2235.017 938.574 C 2232.808 945.028, 2229.917 951.731, 2228.592 953.468 C 2227.267 955.206, 2225.471 958.330, 2224.602 960.411 C 2219.542 972.521, 2210.174 981.306, 2198.774 984.632 C 2195.873 985.479, 2191.700 987.209, 2189.500 988.479 C 2187.300 989.748, 2181.225 991.720, 2176 992.861 C 2170.775 994.002, 2163.843 995.879, 2160.595 997.031 C 2152.210 1000.006, 2129.648 1001.955, 2103.306 1001.979 C 2081.305 1002, 2081.087 1002.021, 2078.306 1004.412 L 2075.500 1006.823 2075.500 1022.550 C 2075.500 1038.176, 2075.516 1038.289, 2078.010 1040.154 C 2080.449 1041.979, 2087.444 1042.032, 2327.306 1042.026 C 2482.277 1042.023, 2574.757 1041.665, 2575.879 1041.065 C 2580.013 1038.852, 2580.385 1037.338, 2580.149 1023.671 C 2579.798 1003.304, 2579.120 1002.223, 2566.275 1001.548 C 2539.288 1000.131, 2523.554 998.672, 2516.394 996.923 C 2511.936 995.834, 2503.157 994.079, 2496.886 993.023 C 2488.250 991.569, 2483.830 990.242, 2478.669 987.552 C 2474.921 985.598, 2471.240 984, 2470.488 984 C 2467.288 984, 2451.973 969.515, 2448.813 963.500 C 2447.657 961.300, 2445.691 958.150, 2444.445 956.500 C 2443.198 954.850, 2441.406 950.800, 2440.462 947.500 C 2439.519 944.200, 2437.885 939.794, 2436.832 937.708 C 2434.302 932.699, 2433.421 927.436, 2431.022 903 C 2429.109 883.501, 2429.010 875.317, 2429.005 735.400 L 2429 588.300 2432.170 583.900 C 2433.913 581.480, 2436.188 578.895, 2437.225 578.155 C 2438.262 577.415, 2441.223 574.870, 2443.805 572.501 C 2446.387 570.132, 2453.225 564.034, 2459 558.951 C 2470.172 549.118, 2472.579 546.962, 2479.877 540.247 C 2486.023 534.592, 2491.691 529.469, 2497.850 524 C 2500.638 521.525, 2505.888 516.690, 2509.517 513.255 C 2518.878 504.394, 2523.424 504.007, 2528.055 511.677 C 2529.324 513.780, 2531.744 517.134, 2533.431 519.130 C 2535.119 521.127, 2538.300 525.101, 2540.500 527.962 C 2542.700 530.822, 2546.075 534.889, 2548 537 C 2549.925 539.111, 2553.300 543.180, 2555.500 546.043 C 2557.700 548.907, 2561.863 553.889, 2564.750 557.116 C 2567.637 560.343, 2570 563.368, 2570 563.838 C 2570 564.308, 2571.463 566.306, 2573.250 568.278 C 2575.037 570.249, 2578.075 573.937, 2580 576.473 C 2581.925 579.009, 2584.887 582.753, 2586.583 584.792 C 2589.620 588.445, 2596.371 597.222, 2600.727 603.182 C 2601.953 604.858, 2603.978 607.241, 2605.227 608.477 C 2606.477 609.714, 2609.300 613.058, 2611.500 615.909 C 2613.700 618.759, 2617.300 623.255, 2619.500 625.899 C 2621.700 628.544, 2625.843 633.810, 2628.708 637.603 C 2631.572 641.397, 2635.269 646.075, 2636.924 648 C 2638.579 649.925, 2641.636 653.631, 2643.717 656.236 C 2652.761 667.557, 2656.693 672.421, 2659.566 675.846 C 2661.252 677.856, 2663.635 680.949, 2664.862 682.719 C 2666.089 684.490, 2668.309 687.256, 2669.796 688.867 C 2671.283 690.478, 2674.300 694.133, 2676.500 696.990 C 2678.700 699.847, 2682.075 704.121, 2684 706.487 C 2685.925 708.853, 2689.525 713.364, 2692 716.512 C 2694.475 719.660, 2698.300 724.430, 2700.500 727.112 C 2702.700 729.793, 2706.203 734.128, 2708.285 736.744 C 2710.368 739.360, 2713.743 743.600, 2715.785 746.166 C 2717.828 748.733, 2721.750 753.608, 2724.500 757 C 2729.294 762.914, 2732.718 767.193, 2740.500 777 C 2748.282 786.807, 2751.706 791.086, 2756.500 797 C 2759.250 800.392, 2763.172 805.267, 2765.215 807.834 C 2767.257 810.400, 2770.632 814.640, 2772.715 817.256 C 2774.797 819.872, 2778.300 824.207, 2780.500 826.888 C 2782.700 829.570, 2786.525 834.340, 2789 837.488 C 2791.475 840.636, 2795.172 845.301, 2797.215 847.856 C 2799.257 850.410, 2802.632 854.640, 2804.715 857.256 C 2806.797 859.872, 2810.300 864.213, 2812.500 866.902 C 2814.700 869.590, 2818.300 874.115, 2820.500 876.957 C 2822.700 879.798, 2825.898 883.783, 2827.606 885.811 C 2829.314 887.840, 2831.293 890.625, 2832.004 892 C 2832.715 893.375, 2834.396 895.850, 2835.739 897.500 C 2840.625 903.501, 2847.260 914.627, 2849.116 919.930 C 2850.161 922.917, 2851.719 926.137, 2852.578 927.086 C 2858.552 933.687, 2858.190 954.010, 2851.915 964.265 C 2850.312 966.886, 2849 969.501, 2849 970.077 C 2849 971.878, 2837.675 982.614, 2833.490 984.780 C 2831.296 985.916, 2827.976 987.986, 2826.113 989.380 C 2824.251 990.774, 2820.241 992.431, 2817.203 993.062 C 2814.166 993.692, 2809.615 995.107, 2807.090 996.205 C 2799.320 999.586, 2788.378 1001.052, 2766.500 1001.645 C 2738.257 1002.410, 2738.775 1002.025, 2738.513 1022.483 C 2738.323 1037.380, 2738.772 1039.314, 2742.923 1041.460 C 2747.451 1043.802, 3229.046 1043.855, 3232.619 1041.514 C 3236.411 1039.029, 3236.805 1037.141, 3236.605 1022.390 C 3236.335 1002.521, 3235.911 1001.994, 3218.609 1000.058 C 3212.949 999.425, 3206.106 997.919, 3202.609 996.539 C 3199.249 995.212, 3193.641 993.398, 3190.147 992.509 C 3186.652 991.619, 3182.152 989.809, 3180.147 988.485 C 3178.141 987.161, 3174.546 985.391, 3172.159 984.551 C 3169.771 983.711, 3166.454 981.877, 3164.788 980.475 C 3163.122 979.073, 3160.132 977.246, 3158.143 976.415 C 3156.154 975.584, 3153.621 974.077, 3152.514 973.065 C 3151.406 972.053, 3148.475 970.208, 3146 968.965 C 3140.409 966.156, 3135.767 962.253, 3122.738 949.404 C 3104.563 931.481, 3092.418 918.008, 3076 897.556 C 3073.525 894.473, 3070.037 890.402, 3068.250 888.509 C 3066.463 886.616, 3065 884.692, 3065 884.235 C 3065 883.777, 3063.313 881.541, 3061.250 879.265 C 3059.188 876.990, 3055.475 872.588, 3053 869.483 C 3050.525 866.379, 3046.700 861.628, 3044.500 858.926 C 3042.300 856.223, 3038.797 851.872, 3036.715 849.256 C 3034.632 846.640, 3031.257 842.400, 3029.215 839.834 C 3027.172 837.267, 3023.250 832.392, 3020.500 829 C 3017.750 825.608, 3013.828 820.733, 3011.785 818.166 C 3009.743 815.600, 3006.368 811.360, 3004.285 808.744 C 3002.203 806.128, 2998.700 801.753, 2996.500 799.021 C 2994.300 796.290, 2990.475 791.537, 2988 788.459 C 2985.525 785.382, 2981.925 780.911, 2980 778.524 C 2978.075 776.137, 2974.700 771.847, 2972.500 768.990 C 2970.300 766.133, 2967.283 762.478, 2965.796 760.867 C 2964.309 759.256, 2962.089 756.490, 2960.862 754.719 C 2959.635 752.949, 2957.252 749.872, 2955.566 747.883 C 2953.880 745.893, 2950.475 741.683, 2948 738.527 C 2942.778 731.868, 2937.182 724.973, 2932.964 720 C 2925.372 711.049, 2917.326 700.816, 2911.684 692.934 C 2910.135 690.770, 2908.490 689, 2908.029 689 C 2907.568 689, 2906.003 686.975, 2904.553 684.500 C 2903.102 682.025, 2901.491 680, 2900.972 680 C 2900.454 680, 2899.010 678.484, 2897.765 676.631 C 2895.633 673.460, 2889.395 665.512, 2884.756 660.057 C 2883.613 658.714, 2881.660 656.114, 2880.415 654.279 C 2879.170 652.445, 2876.880 649.649, 2875.326 648.067 C 2873.771 646.485, 2870.925 643.110, 2869 640.569 C 2865.727 636.246, 2862.666 632.434, 2853.951 621.822 C 2851.999 619.445, 2849.390 616.051, 2848.154 614.281 C 2846.919 612.510, 2844.691 609.744, 2843.204 608.133 C 2841.717 606.522, 2838.700 602.867, 2836.500 600.010 C 2834.300 597.153, 2830.925 592.863, 2829 590.476 C 2827.075 588.089, 2823.475 583.618, 2821 580.541 C 2818.525 577.463, 2814.700 572.710, 2812.500 569.979 C 2810.300 567.247, 2806.797 562.872, 2804.715 560.256 C 2802.632 557.640, 2799.257 553.400, 2797.215 550.834 C 2795.172 548.267, 2791.250 543.392, 2788.500 540 C 2785.750 536.608, 2781.828 531.733, 2779.785 529.166 C 2777.743 526.600, 2774.368 522.360, 2772.285 519.744 C 2770.203 517.128, 2766.700 512.793, 2764.500 510.112 C 2762.300 507.430, 2758.475 502.660, 2756 499.512 C 2753.525 496.364, 2749.828 491.699, 2747.785 489.144 C 2745.743 486.590, 2742.368 482.334, 2740.285 479.686 C 2738.203 477.039, 2735.283 473.538, 2733.796 471.906 C 2732.309 470.274, 2730.090 467.490, 2728.864 465.719 C 2727.639 463.949, 2725.031 460.621, 2723.068 458.324 C 2721.106 456.027, 2717.700 451.790, 2715.500 448.908 C 2713.300 446.025, 2710.356 442.505, 2708.957 441.084 C 2707.558 439.663, 2705.384 436.813, 2704.125 434.750 C 2702.867 432.687, 2701.483 431, 2701.051 431 C 2700.619 431, 2699.131 429.285, 2697.744 427.189 C 2696.356 425.093, 2693.484 421.282, 2691.361 418.721 C 2689.237 416.160, 2685.700 411.742, 2683.500 408.902 C 2681.300 406.062, 2678.264 402.335, 2676.753 400.619 C 2669.128 391.959, 2665.323 387.111, 2663.586 383.840 L 2661.672 380.235 2664.378 375.618 C 2665.867 373.078, 2667.469 371, 2667.940 371 C 2668.411 371, 2675.929 364.686, 2684.648 356.968 C 2693.367 349.250, 2702.417 341.263, 2704.760 339.218 C 2708.623 335.848, 2711.159 333.559, 2720.500 325.016 C 2724.683 321.190, 2750.485 298.548, 2757.553 292.500 C 2764.790 286.307, 2770.130 281.609, 2775.423 276.780 C 2784.157 268.811, 2789.127 264.343, 2793.530 260.500 C 2796.051 258.300, 2799.843 254.925, 2801.956 253 C 2804.069 251.075, 2807.981 247.628, 2810.649 245.340 C 2813.317 243.052, 2822.250 235.287, 2830.500 228.086 C 2838.750 220.884, 2847.175 213.532, 2849.222 211.746 C 2851.270 209.961, 2854.726 206.925, 2856.903 205 C 2859.080 203.075, 2863.645 199.250, 2867.049 196.500 C 2870.452 193.750, 2875.161 189.925, 2877.513 188 C 2879.864 186.075, 2884.380 182.475, 2887.547 180 C 2890.714 177.525, 2894.474 174.375, 2895.903 173 C 2897.331 171.625, 2900.147 169.375, 2902.159 168 C 2904.172 166.625, 2909.300 162.800, 2913.556 159.500 C 2917.811 156.200, 2922.690 152.480, 2924.397 151.234 C 2926.103 149.987, 2930.200 146.958, 2933.500 144.501 C 2936.800 142.044, 2941.484 138.789, 2943.909 137.267 C 2946.335 135.745, 2949.769 133.263, 2951.541 131.750 C 2953.314 130.238, 2955.216 129, 2955.768 129 C 2956.320 129, 2959.468 127.200, 2962.762 125 C 2966.057 122.800, 2969.167 121, 2969.673 121 C 2970.179 121, 2973.677 118.975, 2977.445 116.500 C 2981.213 114.025, 2984.792 111.999, 2985.398 111.998 C 2986.004 111.996, 2989.148 110.196, 2992.385 107.998 C 2995.622 105.799, 2998.850 104, 2999.558 104 C 3000.267 104, 3002.194 102.866, 3003.841 101.480 C 3005.489 100.094, 3009.011 97.999, 3011.668 96.824 C 3014.326 95.649, 3018.075 93.454, 3020 91.946 C 3021.925 90.437, 3024.625 88.887, 3026 88.500 C 3027.375 88.113, 3030.097 86.544, 3032.049 85.013 C 3034.002 83.481, 3037.907 81.235, 3040.728 80.022 C 3043.549 78.808, 3046.644 76.946, 3047.605 75.884 C 3048.566 74.822, 3051.851 73.227, 3054.905 72.339 C 3057.960 71.451, 3062.043 69.692, 3063.979 68.429 C 3065.916 67.167, 3070.393 65.395, 3073.929 64.493 C 3077.464 63.591, 3082.480 61.777, 3085.075 60.462 C 3087.670 59.147, 3093.061 57.328, 3097.055 56.419 C 3101.048 55.511, 3107.437 53.677, 3111.252 52.345 C 3115.067 51.012, 3124.523 49.040, 3132.266 47.963 C 3153.910 44.952, 3153.928 44.927, 3153.230 18.250 L 3152.752 0 2933.018 0 L 2713.285 0 2712.642 6.147 C 2711.597 16.149, 2711.898 36.682, 2713.130 39.385 C 2715.018 43.529, 2718.659 44.306, 2733.770 43.794 C 2742.970 43.482, 2749.810 43.772, 2754.500 44.672 C 2758.350 45.412, 2766 46.733, 2771.500 47.609 C 2782.218 49.315, 2784.163 50.034, 2793.623 55.780 C 2802.594 61.231, 2807.213 64.929, 2810.541 69.328 C 2812.169 71.478, 2814.965 75.097, 2816.755 77.369 C 2821.507 83.398, 2828.982 94.831, 2830.160 97.870 C 2831.470 101.247, 2830.497 113.837, 2828.025 125.500 C 2826.975 130.450, 2825.396 138.244, 2824.514 142.820 C 2823.538 147.886, 2821.560 153.686, 2819.455 157.653 C 2817.555 161.235, 2816 164.736, 2816 165.433 C 2816 166.130, 2814.697 168.498, 2813.105 170.696 C 2811.513 172.894, 2809.427 176.224, 2808.469 178.096 C 2807.511 179.968, 2805.326 183.163, 2803.614 185.195 C 2801.901 187.227, 2796.675 193.493, 2792 199.118 C 2776.110 218.239, 2750.890 243.526, 2722 269.303 C 2714.575 275.928, 2706.830 282.958, 2704.790 284.924 C 2702.749 286.891, 2698.998 290.300, 2696.454 292.500 C 2691.925 296.416, 2687.012 300.851, 2680 307.354 C 2674.825 312.153, 2660.296 324.890, 2654 330.147 C 2650.975 332.674, 2646.025 337.036, 2643 339.843 C 2639.975 342.649, 2635.575 346.645, 2633.223 348.723 C 2627.356 353.905, 2620.099 360.503, 2616.500 363.928 C 2613.564 366.722, 2579.241 397.043, 2569.649 405.316 C 2566.981 407.617, 2563.083 411.075, 2560.988 413 C 2550.324 422.795, 2540.148 431.957, 2526.567 443.990 C 2523.780 446.459, 2518.031 451.733, 2513.792 455.710 C 2505.752 463.252, 2502.054 465.120, 2499.447 462.956 C 2498.088 461.828, 2497.958 446.640, 2498.265 325.094 L 2498.610 188.500 2501.158 178 C 2502.560 172.225, 2504.260 164.575, 2504.935 161 C 2505.611 157.425, 2507.426 152.250, 2508.970 149.500 C 2510.513 146.750, 2512.105 143.375, 2512.506 142 C 2513.306 139.257, 2517.607 132.996, 2522.915 126.847 C 2531.650 116.730, 2548.935 107.204, 2564.298 104.040 C 2569.359 102.997, 2574.797 101.651, 2576.381 101.047 C 2582.737 98.626, 2588.934 98.005, 2616.608 97.013 C 2643.222 96.060, 2645.618 95.826, 2647.437 94.007 C 2650.253 91.191, 2651.193 62.470, 2648.598 58.510 C 2646.585 55.437, 2642.788 55.212, 2640 58 C 2638.283 59.717, 2638 61.333, 2638 69.411 C 2638 78.661, 2637.948 78.866, 2634.971 81.371 C 2631.773 84.062, 2626.112 85.641, 2623.398 84.599 C 2620.936 83.654, 2572.225 85.837, 2557.500 87.552 C 2538.479 89.768, 2533.669 90.650, 2528.839 92.807 C 2526.453 93.872, 2522.250 95.487, 2519.500 96.393 C 2511.146 99.148, 2498.790 113.009, 2495.374 123.458 C 2494.468 126.231, 2492.923 130.100, 2491.942 132.055 C 2490.961 134.011, 2489.646 138.961, 2489.019 143.055 C 2487.014 156.167, 2486.040 227.230, 2486.132 353.720 L 2486.222 476.941 2482.309 481.387 C 2480.156 483.832, 2471.669 491.719, 2463.448 498.914 C 2455.226 506.109, 2446.200 514.260, 2443.390 517.027 C 2435.415 524.880, 2429.355 525.768, 2428.805 519.164 C 2428.637 517.149, 2428.744 431.125, 2429.042 328 C 2429.582 141.343, 2429.595 140.431, 2431.792 125.210 C 2433.232 115.238, 2434.738 108.473, 2436.123 105.758 C 2437.291 103.469, 2439.077 99.182, 2440.092 96.232 C 2443.970 84.960, 2456.032 69.466, 2464.890 64.378 C 2467.425 62.921, 2470.437 60.882, 2471.583 59.847 C 2472.729 58.812, 2476.937 57.059, 2480.935 55.951 C 2484.933 54.843, 2489.924 53.059, 2492.026 51.987 C 2494.461 50.745, 2500.503 49.490, 2508.674 48.530 C 2515.728 47.702, 2524.875 46.524, 2529 45.913 C 2533.125 45.303, 2544.825 44.510, 2555 44.152 C 2574.269 43.473, 2576.923 42.881, 2579.123 38.770 C 2580.350 36.478, 2580.489 16.446, 2579.353 5.750 L 2578.742 -0 2327.513 -0 L 2076.285 0 2075.642 6.147 M 3438.642 6.147 C 3438.289 9.527, 3438 18.070, 3438 25.131 C 3438 37.839, 3438.029 38.001, 3440.857 41.166 C 3444.229 44.939, 3444.284 44.949, 3479.500 47.975 C 3497.027 49.481, 3506.736 50.825, 3515.500 52.956 C 3522.100 54.562, 3530.425 56.390, 3534 57.020 C 3537.575 57.649, 3543.500 59.477, 3547.168 61.082 C 3550.835 62.687, 3554.347 64, 3554.973 64 C 3556.240 64, 3566.812 74.581, 3571.568 80.611 C 3577.781 88.485, 3583.744 102.696, 3584.950 112.500 C 3585.559 117.450, 3586.709 125.100, 3587.505 129.500 C 3590.592 146.557, 3590.969 165.513, 3591.017 306.092 C 3591.059 428.944, 3590.869 448.343, 3589.599 450.736 C 3588.792 452.256, 3573.447 468.125, 3555.500 486 C 3525.646 515.734, 3520 521.927, 3520 524.939 C 3520 525.510, 3535.267 541.248, 3553.927 559.912 C 3572.587 578.577, 3588.571 594.941, 3589.446 596.278 C 3590.884 598.472, 3591.034 612.765, 3590.997 744.104 C 3590.957 888.149, 3590.735 899.078, 3587.497 916.500 C 3586.679 920.900, 3585.315 928.763, 3584.466 933.974 C 3583.617 939.185, 3582.327 944.585, 3581.598 945.974 C 3578.044 952.753, 3574.428 958.758, 3572.442 961.181 C 3571.234 962.656, 3569.298 965.806, 3568.141 968.181 C 3566.984 970.556, 3563.666 975.037, 3560.769 978.137 C 3556.286 982.933, 3554.714 983.939, 3550.228 984.881 C 3547.329 985.490, 3542.673 987.145, 3539.882 988.560 C 3537.091 989.974, 3530.291 991.992, 3524.770 993.044 C 3519.249 994.096, 3512.215 995.898, 3509.138 997.049 C 3503.196 999.273, 3483.997 1001.377, 3457.037 1002.759 L 3442.573 1003.500 3440.287 1006.898 C 3438.181 1010.027, 3438 1011.380, 3438 1024 C 3438 1036.626, 3438.180 1037.971, 3440.290 1041.102 L 3442.580 1044.500 3684 1044.500 L 3925.420 1044.500 3927.789 1041 C 3930.063 1037.639, 3930.144 1036.902, 3929.828 1022.453 C 3929.387 1002.245, 3929.523 1002.447, 3915.800 1001.548 C 3884.604 999.506, 3868.559 997.876, 3861.867 996.071 C 3857.815 994.978, 3850.225 993.356, 3845 992.468 C 3839.775 991.579, 3832.500 989.535, 3828.832 987.926 C 3825.165 986.317, 3821.720 985, 3821.177 985 C 3820.224 985, 3816.257 981.986, 3807.194 974.378 C 3795.879 964.878, 3787.006 948.876, 3784.061 932.655 C 3783.047 927.070, 3781.156 919.575, 3779.858 916 L 3777.500 909.500 3777.235 753.301 L 3776.969 597.101 3781.254 592.301 C 3783.610 589.660, 3799.639 573.429, 3816.873 556.232 C 3845.723 527.443, 3848.155 524.753, 3847.539 522.300 C 3847.118 520.622, 3834.224 506.934, 3812.696 485.311 C 3793.900 466.431, 3778.210 450.201, 3777.831 449.242 C 3777.451 448.284, 3777.109 389.385, 3777.070 318.355 C 3776.996 181.189, 3777.190 174.002, 3782.031 134.500 C 3784.708 112.660, 3785.934 106.173, 3788.260 101.548 C 3789.353 99.375, 3791.079 95.178, 3792.096 92.222 C 3794.034 86.588, 3801.650 75.595, 3805.340 73.104 C 3806.528 72.303, 3809.129 70.205, 3811.119 68.444 C 3813.110 66.683, 3816.485 64.676, 3818.619 63.986 C 3820.754 63.295, 3824.300 61.716, 3826.500 60.475 C 3828.700 59.235, 3834.056 57.450, 3838.402 56.508 C 3842.748 55.566, 3849.251 53.687, 3852.852 52.331 C 3859.605 49.790, 3870.208 48.478, 3904 46.007 C 3924.156 44.532, 3926.750 43.842, 3928.578 39.469 C 3930.119 35.780, 3930.448 22.406, 3929.346 8.250 L 3928.704 0 3683.994 0 L 3439.285 0 3438.642 6.147 M 1496.250 42.662 C 1493.045 43.956, 1498.369 52.256, 1504.952 56.227 C 1519.119 64.773, 1532.136 86.991, 1539.093 114.500 L 1543.140 130.500 1543.024 529.500 C 1542.959 748.950, 1542.530 930.075, 1542.068 932 C 1539.673 941.993, 1534.563 957.804, 1533.019 960 C 1532.052 961.375, 1530.244 964.509, 1529.001 966.964 C 1525.645 973.592, 1517.136 982.800, 1513.152 984.115 C 1511.275 984.734, 1508.110 986.695, 1506.119 988.472 C 1504.129 990.250, 1501.156 992.336, 1499.512 993.109 C 1497.869 993.883, 1496.362 995.358, 1496.164 996.388 C 1495.303 1000.858, 1502.506 1001.140, 1514.735 997.114 C 1519.556 995.527, 1527.550 993.701, 1532.500 993.055 C 1570.635 988.080, 1581.402 978.626, 1590.076 942.500 C 1591.651 935.940, 1590.827 118.409, 1589.241 114 C 1588.549 112.075, 1586.844 105.126, 1585.454 98.558 C 1584.038 91.872, 1581.952 85.052, 1580.713 83.062 C 1579.496 81.108, 1577.762 77.880, 1576.859 75.889 C 1574.375 70.408, 1562.656 58.528, 1557.219 55.979 C 1554.624 54.762, 1551.287 52.905, 1549.804 51.854 C 1548.241 50.745, 1541.938 48.935, 1534.804 47.548 C 1528.037 46.231, 1519.575 44.451, 1516 43.592 C 1509.799 42.102, 1498.910 41.589, 1496.250 42.662 M 3568.250 42.662 C 3567.563 42.940, 3567 43.931, 3567 44.865 C 3567 46.750, 3576.327 57, 3578.043 57 C 3581.600 57, 3599.767 79.951, 3601.419 86.532 C 3601.782 87.978, 3603.163 90.813, 3604.489 92.831 C 3605.815 94.849, 3607.825 100.550, 3608.956 105.500 C 3610.088 110.450, 3611.936 117.875, 3613.065 122 L 3615.117 129.500 3615.013 528.767 C 3614.912 920.029, 3614.871 928.179, 3612.977 935.267 C 3608.399 952.406, 3607.067 956.419, 3605.050 959.147 C 3603.875 960.736, 3602.076 963.989, 3601.053 966.376 C 3598.474 972.392, 3590.603 981.032, 3585.100 983.886 C 3582.570 985.198, 3579.188 987.369, 3577.585 988.710 C 3575.982 990.051, 3572.962 991.832, 3570.873 992.667 C 3566.493 994.420, 3565.021 997.450, 3567.397 999.825 C 3570.324 1002.752, 3591.167 1000.796, 3602.513 996.530 C 3605.820 995.286, 3611.895 993.505, 3616.013 992.573 C 3620.131 991.640, 3625.300 989.831, 3627.500 988.553 C 3629.700 987.274, 3634.318 985.441, 3637.763 984.479 C 3643.906 982.763, 3651.721 977.258, 3653.964 973.066 C 3654.474 972.115, 3655.613 965.749, 3656.497 958.919 C 3657.380 952.088, 3659.210 942.413, 3660.562 937.418 L 3663.022 928.337 3662.734 524.418 L 3662.446 120.500 3660.198 111.500 C 3658.962 106.550, 3657.334 99.574, 3656.580 95.998 C 3654.943 88.222, 3648.611 75.820, 3641.952 67.345 C 3637.249 61.360, 3631.296 56, 3629.351 56 C 3628.823 56, 3626.215 54.620, 3623.556 52.933 C 3619.963 50.655, 3615.606 49.239, 3606.610 47.428 C 3599.949 46.087, 3591.575 44.326, 3588 43.516 C 3581.729 42.094, 3570.827 41.622, 3568.250 42.662 M 754.439 45.193 C 753.630 47.740, 757.517 54.530, 761.540 57.599 C 763.498 59.091, 766.265 62.380, 767.690 64.906 C 769.115 67.433, 771.360 71.203, 772.678 73.285 C 773.997 75.367, 776.155 81.225, 777.474 86.303 C 778.793 91.380, 780.389 96.877, 781.020 98.517 C 781.650 100.158, 782.419 106.525, 782.728 112.666 C 783.263 123.320, 783.173 124.030, 780.755 128.166 C 773.261 140.983, 776.136 150.135, 784.969 141.581 C 795.877 131.018, 801.987 125.378, 806 122.164 C 813.400 116.238, 823.692 107.469, 832.013 100 C 834.158 98.075, 838.192 94.700, 840.978 92.500 C 843.764 90.300, 847.721 87.099, 849.772 85.386 C 851.822 83.674, 854.887 81.564, 856.582 80.697 C 858.278 79.831, 861.583 77.520, 863.927 75.561 C 866.271 73.602, 868.719 72, 869.367 72 C 870.014 72, 872.198 70.637, 874.219 68.971 C 876.239 67.306, 879.576 65.240, 881.633 64.380 C 883.690 63.521, 886.752 61.790, 888.436 60.534 C 890.121 59.279, 893.773 57.513, 896.552 56.611 C 901.620 54.965, 912.178 45.844, 910.711 44.378 C 910.344 44.011, 875.153 43.663, 832.510 43.605 C 760.484 43.507, 754.938 43.620, 754.439 45.193 M 2826.814 44.725 C 2825.243 46.617, 2829.371 54.160, 2834.025 57.900 C 2836.224 59.667, 2839.197 63.428, 2840.631 66.258 C 2842.064 69.087, 2844.116 72.591, 2845.191 74.044 C 2846.265 75.497, 2848.233 80.919, 2849.564 86.093 C 2850.894 91.267, 2852.662 97.961, 2853.492 100.968 C 2856.090 110.387, 2855.517 122.027, 2852.124 128.779 C 2848.510 135.969, 2847.548 140.287, 2848.969 142.941 C 2850.588 145.967, 2852.995 145.469, 2857.146 141.250 C 2864.038 134.245, 2868.479 130.258, 2884 117.138 C 2905.761 98.742, 2906.996 97.691, 2911.677 93.573 C 2916.251 89.550, 2919.656 86.991, 2928 81.305 C 2931.025 79.243, 2934.978 76.307, 2936.785 74.778 C 2938.591 73.250, 2940.626 72, 2941.307 72 C 2941.988 72, 2944.198 70.637, 2946.219 68.971 C 2948.239 67.306, 2951.576 65.240, 2953.633 64.380 C 2955.690 63.521, 2958.752 61.790, 2960.436 60.534 C 2962.121 59.279, 2965.773 57.513, 2968.552 56.611 C 2973.682 54.945, 2984.170 45.837, 2982.677 44.344 C 2981.330 42.997, 2827.938 43.371, 2826.814 44.725 M 191 53.036 C 187.425 53.437, 181.720 53.819, 178.321 53.883 C 168.628 54.066, 165.831 59.259, 172.093 65.445 C 181.292 74.532, 189.067 88.280, 190.946 98.780 C 192.289 106.284, 193.749 126.937, 194.991 156 C 195.618 170.671, 195.996 315.187, 195.998 540.656 C 196 897.157, 195.974 902.058, 193.962 920.873 C 191.929 939.892, 191.054 944.057, 187.111 953.500 C 185.962 956.250, 184.566 960.300, 184.009 962.500 C 183.452 964.700, 180.733 970.018, 177.967 974.319 C 173.468 981.314, 172.337 982.402, 167.220 984.656 C 164.074 986.041, 160.666 987.923, 159.646 988.837 C 158.627 989.752, 155.295 991.400, 152.242 992.500 C 145.969 994.760, 143.897 997.027, 145.613 999.750 C 146.579 1001.283, 148.809 1001.538, 163.608 1001.803 C 182.813 1002.147, 190.239 1001.108, 197.500 997.063 C 200.250 995.531, 205.040 993.541, 208.144 992.642 C 217.700 989.872, 228.800 978.663, 232.873 967.669 C 234.061 964.461, 235.726 960.496, 236.574 958.857 C 242.656 947.096, 242.840 934.498, 242.912 526 C 242.980 139.635, 242.730 122.423, 236.811 106 C 235.721 102.975, 233.988 96.789, 232.959 92.254 C 231.930 87.718, 229.958 82.079, 228.577 79.721 C 227.195 77.363, 225.358 73.424, 224.494 70.967 C 222.888 66.399, 215.812 55.472, 213.041 53.282 C 211.358 51.951, 201.615 51.842, 191 53.036 M 2263 53.036 C 2259.425 53.437, 2253.720 53.819, 2250.321 53.883 C 2240.630 54.066, 2237.833 59.257, 2244.090 65.445 C 2255.963 77.187, 2262.266 90.440, 2263.972 107.247 C 2267.119 138.268, 2267.322 160.523, 2267.741 520.500 C 2268.054 789.326, 2267.862 888.300, 2267 902 C 2265.297 929.109, 2263.519 942.067, 2260.585 948.778 C 2259.209 951.925, 2257.388 956.975, 2256.539 960 C 2255.690 963.025, 2252.846 969.078, 2250.219 973.452 C 2245.899 980.642, 2244.858 981.695, 2239.334 984.452 C 2235.975 986.128, 2232.512 988.108, 2231.638 988.852 C 2230.764 989.596, 2227.225 991.171, 2223.774 992.352 C 2218.202 994.260, 2217.463 994.824, 2217.170 997.391 C 2216.982 999.034, 2217.414 1000.647, 2218.170 1001.126 C 2220.121 1002.363, 2253.009 1002.185, 2259.201 1000.904 C 2262.115 1000.301, 2266.750 998.563, 2269.500 997.042 C 2272.250 995.522, 2277.040 993.541, 2280.144 992.642 C 2289.766 989.853, 2301.220 978.363, 2304.954 967.755 C 2305.971 964.865, 2307.716 960.475, 2308.832 958 C 2309.949 955.525, 2311.643 948.550, 2312.597 942.500 C 2314.216 932.236, 2314.360 906.056, 2314.743 551 C 2315.198 129.559, 2315.081 120.659, 2308.877 104.500 C 2307.821 101.750, 2306.031 95.900, 2304.899 91.500 C 2303.766 87.100, 2301.757 81.475, 2300.433 79 C 2299.109 76.525, 2297.401 72.689, 2296.637 70.475 C 2294.969 65.644, 2286.634 53.457, 2284.415 52.606 C 2282.447 51.851, 2271.604 52.068, 2263 53.036 M 1142 58 C 1140.317 59.683, 1140 61.333, 1140 68.411 C 1140 76.461, 1139.876 76.927, 1137.106 79.258 C 1135.030 81.004, 1132.472 81.875, 1128.066 82.335 C 1124.686 82.689, 1118.451 83.845, 1114.210 84.905 C 1109.970 85.965, 1101.550 87.588, 1095.500 88.513 C 1089.450 89.438, 1082.025 91.219, 1079 92.471 C 1075.975 93.723, 1069.900 95.532, 1065.500 96.491 C 1061.100 97.450, 1055.443 99.274, 1052.929 100.544 C 1050.414 101.814, 1045.464 103.591, 1041.929 104.493 C 1038.393 105.395, 1033.925 107.157, 1032 108.409 C 1030.075 109.660, 1026.190 111.449, 1023.368 112.383 C 1020.545 113.318, 1017.395 115.017, 1016.368 116.158 C 1015.340 117.300, 1012.099 119.298, 1009.165 120.599 C 1006.231 121.900, 1002.484 124.098, 1000.838 125.482 C 999.193 126.867, 997.297 128, 996.626 128 C 995.955 128, 992.323 130.025, 988.555 132.500 C 984.787 134.975, 981.111 137, 980.387 137 C 979.662 137, 977.591 138.258, 975.785 139.796 C 973.978 141.333, 970.475 143.440, 968 144.478 C 965.525 145.516, 962.375 147.356, 961 148.566 C 959.625 149.776, 956.256 151.741, 953.512 152.932 C 950.769 154.123, 947.613 155.954, 946.499 157.001 C 945.384 158.048, 942.782 159.611, 940.717 160.474 C 938.651 161.337, 934.910 163.609, 932.404 165.522 C 929.897 167.435, 927.369 169, 926.785 169 C 926.201 169, 923.776 170.688, 921.396 172.750 C 919.016 174.813, 914.794 178.300, 912.013 180.500 C 909.232 182.700, 905.279 185.880, 903.228 187.566 C 901.178 189.252, 897.925 191.697, 896 193 C 894.075 194.303, 890.831 196.748, 888.792 198.434 C 886.753 200.120, 882.997 203.075, 880.447 205 C 877.896 206.925, 874.615 209.642, 873.155 211.039 C 871.695 212.435, 868.925 214.655, 867 215.973 C 865.075 217.290, 861.866 219.748, 859.870 221.434 C 857.873 223.120, 853.915 226.300, 851.074 228.500 C 848.233 230.700, 843.691 234.300, 840.981 236.500 C 838.271 238.700, 834.129 241.983, 831.777 243.795 C 819.874 252.965, 808.511 262.402, 801.500 268.938 C 799.850 270.476, 788.150 280.839, 775.500 291.966 C 762.850 303.093, 750.250 314.190, 747.500 316.625 C 744.750 319.061, 740.325 322.954, 737.668 325.277 C 735.010 327.599, 730.960 331.187, 728.668 333.250 C 726.375 335.312, 722.700 338.589, 720.500 340.531 C 718.300 342.473, 714.453 345.961, 711.952 348.281 C 709.450 350.602, 705.249 354.300, 702.616 356.500 C 699.982 358.700, 696.351 361.850, 694.546 363.500 C 692.741 365.150, 683.555 373.236, 674.132 381.469 C 664.432 389.945, 657 397.183, 657 398.154 C 657 401.138, 658.946 405.141, 661.770 407.967 C 663.271 409.470, 665.309 411.892, 666.297 413.350 C 669.389 417.911, 674.837 417.121, 680.790 411.250 C 683.438 408.637, 693.848 399.300, 703.923 390.500 C 744.053 355.447, 766.644 335.616, 769.500 332.934 C 771.150 331.384, 779.250 324.227, 787.500 317.028 C 795.750 309.829, 804.675 302.040, 807.332 299.719 C 809.990 297.399, 814.040 293.813, 816.332 291.750 C 818.625 289.688, 822.300 286.412, 824.500 284.470 C 826.700 282.529, 830.362 279.266, 832.639 277.220 C 836.731 273.542, 853.439 259.443, 863.370 251.287 C 866.192 248.971, 870.075 245.691, 872 244 C 876.155 240.350, 883.918 234.041, 891.074 228.500 C 893.915 226.300, 897.873 223.094, 899.870 221.375 C 901.866 219.657, 904.889 217.407, 906.587 216.375 C 908.285 215.344, 911.210 213.242, 913.087 211.704 C 914.964 210.165, 918.948 206.903, 921.940 204.454 C 924.932 202.004, 927.696 200, 928.081 200 C 928.467 200, 930.960 198.200, 933.623 196 C 936.285 193.800, 938.867 192, 939.360 192 C 939.853 192, 941.887 190.605, 943.878 188.899 C 948.230 185.174, 956.605 179.957, 963.658 176.578 C 966.495 175.219, 969.144 173.577, 969.544 172.929 C 969.944 172.281, 973.053 170.490, 976.453 168.949 C 979.852 167.407, 983.180 165.488, 983.848 164.683 C 984.516 163.878, 987.411 162.222, 990.281 161.003 C 993.152 159.784, 996.425 157.939, 997.556 156.902 C 998.686 155.865, 1002.358 153.686, 1005.715 152.060 C 1009.071 150.434, 1012.117 148.620, 1012.482 148.028 C 1012.848 147.437, 1015.978 145.670, 1019.438 144.101 C 1022.897 142.532, 1026.056 140.719, 1026.456 140.071 C 1026.856 139.423, 1029.715 137.774, 1032.808 136.406 C 1035.901 135.038, 1039.154 133.266, 1040.037 132.467 C 1042.896 129.879, 1060.361 121.381, 1065.419 120.116 C 1068.125 119.440, 1072.175 117.817, 1074.419 116.510 C 1076.664 115.204, 1081.565 113.429, 1085.312 112.567 C 1089.058 111.705, 1094.458 109.896, 1097.312 108.547 C 1100.165 107.198, 1105.875 105.591, 1110 104.977 C 1114.125 104.362, 1122.450 102.569, 1128.500 100.991 C 1134.550 99.414, 1141.610 97.823, 1144.190 97.457 C 1151.902 96.362, 1152.322 95.362, 1152.801 76.948 C 1153.153 63.390, 1152.970 60.603, 1151.585 58.489 C 1149.551 55.385, 1144.855 55.145, 1142 58 M 1917.697 58.024 C 1915.146 60.030, 1915 60.605, 1915 68.638 C 1915 82.326, 1914.021 83.078, 1895.624 83.523 C 1888.406 83.698, 1875.975 84.564, 1868 85.449 C 1860.025 86.333, 1846.355 87.744, 1837.623 88.584 C 1825.997 89.701, 1820.106 90.753, 1815.623 92.510 C 1812.255 93.830, 1806.618 95.636, 1803.095 96.523 C 1799.572 97.410, 1795.297 99.176, 1793.595 100.447 C 1791.893 101.718, 1788.475 103.702, 1786 104.855 C 1780.547 107.396, 1771.080 114.105, 1769.851 116.301 C 1769.361 117.178, 1768.525 128.606, 1767.993 141.697 C 1766.868 169.389, 1765.512 187.379, 1763.463 201.780 C 1762.244 210.348, 1762 232.260, 1762 333.333 L 1762 454.606 1765.089 458.806 C 1768.652 463.652, 1772.631 465.225, 1774.581 462.559 C 1775.584 461.186, 1775.949 434.831, 1776.322 336.661 C 1776.808 209.079, 1777.356 189.731, 1780.853 176.721 C 1781.920 172.750, 1783.362 165.968, 1784.055 161.651 C 1784.749 157.333, 1786.197 152.158, 1787.273 150.151 C 1788.348 148.143, 1790.479 144.025, 1792.008 141 C 1795.579 133.935, 1804.886 123.717, 1810.847 120.316 C 1813.406 118.856, 1816.328 116.950, 1817.341 116.081 C 1818.353 115.211, 1822.628 113.318, 1826.841 111.873 C 1831.053 110.429, 1836.975 108.334, 1840 107.218 C 1852.556 102.588, 1888.985 97.070, 1907.500 96.993 C 1918.802 96.947, 1924.912 95.841, 1926.596 93.538 C 1928.461 90.988, 1929.482 62.781, 1927.835 59.327 C 1926.069 55.625, 1921.494 55.037, 1917.697 58.024 M 3215.385 57.434 C 3211.645 59.062, 3210.738 61.915, 3211.607 69.315 C 3212.646 78.153, 3209.640 81.151, 3198.500 82.389 C 3195.200 82.756, 3189.350 83.911, 3185.500 84.956 C 3181.650 86.001, 3173.550 87.607, 3167.500 88.525 C 3161.450 89.443, 3154.025 91.219, 3151 92.471 C 3147.975 93.723, 3141.900 95.532, 3137.500 96.491 C 3133.100 97.450, 3127.475 99.242, 3125 100.474 C 3122.525 101.705, 3117.297 103.672, 3113.382 104.845 C 3109.467 106.018, 3105.720 107.632, 3105.056 108.432 C 3104.392 109.233, 3100.992 110.838, 3097.500 112 C 3094.008 113.162, 3090.555 114.838, 3089.826 115.725 C 3089.097 116.612, 3085.721 118.601, 3082.323 120.145 C 3078.926 121.690, 3075.828 123.470, 3075.438 124.101 C 3075.047 124.732, 3071.897 126.532, 3068.438 128.101 C 3064.978 129.670, 3061.848 131.437, 3061.482 132.028 C 3061.117 132.620, 3058.071 134.434, 3054.715 136.060 C 3051.358 137.686, 3047.686 139.865, 3046.556 140.902 C 3045.425 141.939, 3042.152 143.784, 3039.281 145.003 C 3036.411 146.222, 3033.516 147.878, 3032.848 148.683 C 3032.180 149.488, 3028.852 151.407, 3025.453 152.949 C 3022.053 154.490, 3018.944 156.281, 3018.544 156.929 C 3018.144 157.577, 3015.495 159.219, 3012.658 160.578 C 3005.605 163.957, 2997.230 169.174, 2992.878 172.899 C 2990.887 174.605, 2988.858 176, 2988.371 176 C 2987.884 176, 2985.017 178.025, 2982 180.500 C 2978.983 182.975, 2976.201 185, 2975.818 185 C 2975.435 185, 2973.084 186.688, 2970.593 188.750 C 2968.103 190.813, 2963.759 194.300, 2960.940 196.500 C 2958.121 198.700, 2953.847 202.075, 2951.442 204 C 2949.037 205.925, 2944.510 209.525, 2941.381 212 C 2938.252 214.475, 2933.524 218.300, 2930.874 220.500 C 2928.224 222.700, 2923.534 226.525, 2920.453 229 C 2917.372 231.475, 2913.375 234.850, 2911.571 236.500 C 2909.768 238.150, 2905.698 241.525, 2902.528 244 C 2899.358 246.475, 2894.455 250.427, 2891.632 252.781 C 2884.159 259.016, 2878.729 263.773, 2864.560 276.500 C 2862.111 278.700, 2858.032 282.300, 2855.496 284.500 C 2852.961 286.700, 2849.174 290.075, 2847.081 292 C 2844.989 293.925, 2840.852 297.594, 2837.888 300.153 C 2827.430 309.184, 2804.456 329.353, 2801 332.537 C 2793.479 339.465, 2788.848 343.650, 2784.760 347.212 C 2778.311 352.832, 2750.059 377.692, 2745.403 381.846 C 2738.490 388.011, 2733.431 392.413, 2731.043 394.342 C 2727.793 396.967, 2728.702 402.782, 2733.159 407.871 C 2734.996 409.969, 2737.283 412.657, 2738.240 413.843 C 2741.338 417.683, 2747.074 416.824, 2752.207 411.750 C 2757.482 406.537, 2781.253 385.457, 2815.367 355.740 C 2818.044 353.408, 2821.982 349.925, 2824.119 348 C 2826.255 346.075, 2830.066 342.700, 2832.587 340.500 C 2835.109 338.300, 2838.896 334.925, 2841.004 333 C 2843.111 331.075, 2847.010 327.601, 2849.668 325.281 C 2852.325 322.960, 2861.250 315.149, 2869.500 307.922 C 2877.750 300.695, 2886.434 293.144, 2888.798 291.141 C 2891.162 289.139, 2894.802 285.925, 2896.886 284 C 2902.879 278.467, 2909.260 272.812, 2914.066 268.776 C 2924.687 259.855, 2936.574 249.947, 2943.416 244.314 C 2946.212 242.011, 2949.850 238.861, 2951.500 237.314 C 2953.150 235.766, 2955.853 233.600, 2957.506 232.500 C 2959.160 231.400, 2961.635 229.502, 2963.006 228.282 C 2966.822 224.889, 2974.052 219.330, 2978.500 216.371 C 2980.700 214.907, 2982.855 213.108, 2983.289 212.374 C 2983.723 211.640, 2986.085 209.862, 2988.539 208.424 C 2990.992 206.986, 2993 205.453, 2993 205.017 C 2993 204.580, 2995.813 202.371, 2999.250 200.107 C 3008.461 194.041, 3012.111 191.462, 3015.895 188.346 C 3017.762 186.808, 3020.969 184.798, 3023.022 183.879 C 3025.074 182.960, 3027.075 181.688, 3027.468 181.052 C 3027.861 180.417, 3030.929 178.566, 3034.285 176.940 C 3037.642 175.314, 3041.314 173.135, 3042.444 172.098 C 3043.575 171.061, 3046.848 169.216, 3049.719 167.997 C 3052.589 166.778, 3055.496 165.108, 3056.178 164.285 C 3056.861 163.462, 3059.839 161.719, 3062.795 160.412 C 3065.751 159.105, 3069.516 156.902, 3071.162 155.518 C 3072.807 154.133, 3074.703 153, 3075.374 153 C 3076.045 153, 3079.677 150.975, 3083.445 148.500 C 3087.213 146.025, 3090.870 144, 3091.572 144 C 3092.273 144, 3094.194 142.866, 3095.841 141.480 C 3097.489 140.094, 3101.011 137.999, 3103.668 136.824 C 3106.326 135.649, 3110.075 133.464, 3112 131.968 C 3113.925 130.471, 3117.075 128.726, 3119 128.090 C 3120.925 127.453, 3124.156 125.837, 3126.180 124.498 C 3128.204 123.159, 3132.029 121.533, 3134.680 120.883 C 3137.331 120.234, 3141.975 118.436, 3145 116.888 C 3148.025 115.340, 3153.471 113.388, 3157.102 112.549 C 3160.733 111.711, 3166.133 109.921, 3169.102 108.571 C 3172.071 107.222, 3178.775 105.391, 3184 104.503 C 3189.225 103.615, 3197.550 101.821, 3202.500 100.516 C 3207.450 99.212, 3213.411 97.847, 3215.747 97.485 C 3223.807 96.233, 3223.970 95.824, 3224.252 76.180 C 3224.483 60.034, 3224.368 58.763, 3222.559 57.430 C 3220.203 55.694, 3219.381 55.695, 3215.385 57.434 M 3991.465 56.952 C 3987.361 58.615, 3986.670 60.571, 3987.349 68.604 C 3988.071 77.140, 3987.370 79.196, 3982.788 81.983 C 3980.299 83.496, 3978.428 83.759, 3973.102 83.340 C 3969.423 83.051, 3957.423 83.762, 3946 84.947 C 3934.725 86.115, 3918.302 87.760, 3909.505 88.602 C 3897.792 89.723, 3891.902 90.767, 3887.505 92.503 C 3884.202 93.807, 3878.575 95.614, 3875 96.518 C 3871.425 97.422, 3867.600 98.995, 3866.500 100.013 C 3865.400 101.032, 3862.255 102.826, 3859.510 104 C 3854.578 106.110, 3847.890 110.532, 3843.492 114.592 C 3841.383 116.538, 3841.178 117.792, 3840.551 132.592 C 3839.172 165.127, 3837.985 181.897, 3836.026 196.500 C 3834.104 210.831, 3834.014 216.924, 3834.007 333.068 L 3834 454.636 3837.247 458.861 C 3840.991 463.733, 3844.658 465.188, 3846.578 462.563 C 3847.577 461.196, 3847.944 434.769, 3848.318 337.166 C 3848.600 263.611, 3849.226 207.827, 3849.862 199.500 C 3851.299 180.705, 3857.329 152.162, 3860.936 147.083 C 3861.945 145.663, 3863.504 142.743, 3864.399 140.595 C 3866.599 135.319, 3876.432 124.296, 3881.984 120.882 C 3884.468 119.355, 3887.611 117.294, 3888.969 116.303 C 3890.327 115.311, 3894.827 113.318, 3898.969 111.873 C 3903.111 110.429, 3908.975 108.334, 3912 107.218 C 3924.316 102.676, 3961.108 97.023, 3978.440 97.008 C 3983.907 97.004, 3990.994 96.460, 3994.190 95.800 L 4000 94.600 4000 75.300 L 4000 56 3996.750 56.063 C 3994.963 56.098, 3992.584 56.498, 3991.465 56.952 M 487.620 469.511 C 481.085 475.830, 475.364 481, 474.905 481 C 474.446 481, 473.563 481.947, 472.944 483.105 C 471.237 486.294, 472.731 491.784, 476.313 495.488 C 478.066 497.299, 481.525 501.353, 484 504.497 C 486.475 507.640, 490.075 512.142, 492 514.501 C 493.925 516.860, 497.750 521.799, 500.500 525.477 C 505.317 531.919, 509.821 537.598, 515.982 545 C 517.585 546.925, 520.252 550.300, 521.910 552.500 C 523.568 554.700, 526.959 558.975, 529.445 562 C 531.931 565.025, 534.739 568.625, 535.685 570 C 536.631 571.375, 539.001 574.388, 540.952 576.695 C 542.903 579.002, 546.075 582.946, 548 585.458 C 549.925 587.971, 553.230 592.122, 555.346 594.684 C 557.461 597.246, 560.273 600.953, 561.595 602.921 C 562.917 604.890, 566.249 609.200, 569 612.500 C 571.751 615.800, 575.126 620.075, 576.500 622 C 577.874 623.925, 581.256 628.200, 584.014 631.500 C 586.772 634.800, 590.611 639.862, 592.545 642.750 C 594.479 645.638, 596.479 648, 596.989 648 C 597.498 648, 599.102 650.025, 600.553 652.500 C 602.003 654.975, 603.592 657, 604.082 657 C 604.573 657, 606.113 658.688, 607.504 660.750 C 608.895 662.813, 611.613 666.525, 613.545 669 C 615.477 671.475, 618.732 675.658, 620.779 678.296 C 622.825 680.934, 626.300 685.300, 628.500 688 C 630.700 690.700, 634.300 695.220, 636.500 698.046 C 638.700 700.873, 642.118 705.116, 644.096 707.476 C 646.074 709.835, 648.698 713.394, 649.928 715.383 C 651.157 717.372, 652.538 719, 652.996 719 C 653.454 719, 655.213 721.250, 656.905 724 C 658.597 726.750, 660.339 729, 660.775 729 C 661.212 729, 662.370 730.356, 663.349 732.014 C 664.329 733.672, 666.788 737.005, 668.815 739.422 C 670.842 741.838, 674.300 746.127, 676.500 748.954 C 678.700 751.780, 682.300 756.309, 684.500 759.019 C 686.700 761.729, 690.075 766.003, 692 768.515 C 693.925 771.028, 696.886 774.753, 698.579 776.792 C 700.273 778.831, 703.092 782.525, 704.844 785 C 706.596 787.475, 710.273 792.200, 713.015 795.500 C 715.757 798.800, 719.126 803.075, 720.500 805 C 721.874 806.925, 725.243 811.200, 727.985 814.500 C 730.727 817.800, 734.409 822.525, 736.167 825 C 737.924 827.475, 739.918 829.839, 740.597 830.253 C 741.276 830.666, 743.215 833.254, 744.907 836.003 C 746.598 838.751, 748.339 841, 748.775 841 C 749.212 841, 750.415 842.462, 751.448 844.250 C 752.482 846.038, 754.716 849.146, 756.414 851.158 C 759.316 854.598, 762.598 859.019, 767.691 866.347 C 769.859 869.467, 774.102 875.036, 779.064 881.276 C 780.474 883.049, 782.699 886.075, 784.009 888 C 785.318 889.925, 787.877 893.268, 789.695 895.430 C 791.513 897.591, 793 899.851, 793 900.452 C 793 901.053, 794.346 903.177, 795.990 905.172 C 798.851 908.643, 803.564 919.897, 806.581 930.463 C 808.293 936.462, 810.517 966.433, 809.608 971.276 C 808.955 974.756, 808.635 975.071, 792.605 988 C 790.218 989.925, 786.856 992.267, 785.133 993.203 C 782.952 994.389, 782 995.644, 782 997.331 C 782 1001.596, 784.212 1002.380, 795.616 1002.156 C 808.567 1001.902, 817.907 1000.020, 822.779 996.684 C 824.825 995.282, 827.850 993.547, 829.500 992.828 C 837.695 989.256, 853.466 974.466, 854.908 969 C 855.415 967.075, 856.604 959.875, 857.549 953 C 859.232 940.750, 859.224 940.255, 857.155 928.253 C 855.994 921.517, 854.078 914.114, 852.898 911.801 C 851.719 909.488, 849.907 905.136, 848.872 902.129 C 847.838 899.122, 845.684 894.600, 844.085 892.081 C 842.487 889.561, 840.452 885.925, 839.562 884 C 837.514 879.570, 831.860 870.392, 828.825 866.574 C 827.546 864.965, 825.375 861.757, 824 859.445 C 821.032 854.455, 816.813 848.507, 812 842.531 C 810.075 840.141, 806.700 835.873, 804.500 833.046 C 802.300 830.220, 798.700 825.732, 796.500 823.072 C 794.300 820.412, 790.475 815.660, 788 812.512 C 785.525 809.364, 781.925 804.853, 780 802.487 C 778.075 800.121, 774.700 795.873, 772.500 793.046 C 770.300 790.220, 766.700 785.732, 764.500 783.072 C 762.300 780.412, 758.475 775.660, 756 772.512 C 753.525 769.364, 749.925 764.853, 748 762.487 C 746.075 760.121, 742.700 755.847, 740.500 752.990 C 738.300 750.133, 735.255 746.450, 733.734 744.805 C 732.213 743.161, 729.613 739.944, 727.956 737.657 C 726.298 735.371, 722.919 731.025, 720.445 728 C 713.446 719.440, 707.714 712.164, 705.225 708.683 C 703.973 706.932, 702.163 704.825, 701.203 704 C 700.242 703.175, 698.363 700.925, 697.027 699 C 695.692 697.075, 693.001 693.555, 691.049 691.178 C 681.379 679.404, 679.200 676.703, 675.500 671.905 C 673.300 669.052, 670.319 665.544, 668.875 664.109 C 667.432 662.674, 665.741 660.511, 665.118 659.303 C 664.496 658.094, 662.302 655.104, 660.243 652.659 C 658.184 650.213, 654.475 645.641, 652 642.500 C 645.826 634.663, 635.915 622.503, 630.466 616.077 C 627.429 612.495, 620.400 603.460, 616.337 597.914 C 614.262 595.083, 611.383 591.572, 604.923 584 C 603.281 582.075, 599.710 577.575, 596.988 574 C 589.998 564.820, 584.047 557.461, 580.150 553.180 C 578.308 551.156, 576.159 548.263, 575.375 546.750 C 574.590 545.237, 573.540 544, 573.040 544 C 572.541 544, 570.865 542.228, 569.316 540.061 C 566.841 536.599, 562.313 530.730, 551.500 516.969 C 549.850 514.869, 547.173 511.430, 545.551 509.326 C 543.930 507.221, 541.813 504.825, 540.848 504 C 539.883 503.175, 538.060 501.068, 536.797 499.317 C 532.862 493.866, 525.804 484.666, 522.583 480.792 C 520.887 478.753, 517.925 474.989, 516 472.428 C 510.443 465.035, 503.272 457.999, 501.306 458.011 C 500.313 458.016, 494.154 463.191, 487.620 469.511 M 2562 467.118 C 2556.775 472.119, 2550.588 477.793, 2548.250 479.726 C 2542.376 484.584, 2542.664 489.382, 2549.292 497.073 C 2554.612 503.245, 2558.731 508.282, 2561.910 512.500 C 2563.568 514.700, 2566.959 518.975, 2569.445 522 C 2571.931 525.025, 2574.739 528.625, 2575.685 530 C 2576.631 531.375, 2579.001 534.379, 2580.952 536.676 C 2582.903 538.973, 2586.300 543.177, 2588.500 546.018 C 2590.700 548.860, 2594.118 553.116, 2596.096 555.476 C 2598.074 557.835, 2600.698 561.394, 2601.928 563.383 C 2603.157 565.372, 2604.538 567, 2604.996 567 C 2605.454 567, 2607.213 569.250, 2608.905 572 C 2610.597 574.750, 2612.393 577, 2612.896 577 C 2613.399 577, 2614.997 579.025, 2616.447 581.500 C 2617.898 583.975, 2619.479 586, 2619.961 586 C 2620.443 586, 2621.843 587.628, 2623.072 589.617 C 2624.302 591.606, 2627.022 595.319, 2629.118 597.867 C 2631.214 600.415, 2634.531 604.525, 2636.489 607 C 2638.446 609.475, 2641.426 613.179, 2643.111 615.231 C 2644.795 617.283, 2647.147 620.292, 2648.337 621.919 C 2649.527 623.546, 2653.200 628.318, 2656.500 632.523 C 2659.800 636.729, 2663.473 641.490, 2664.663 643.104 C 2665.853 644.718, 2668.205 647.717, 2669.889 649.769 C 2671.574 651.821, 2674.650 655.647, 2676.726 658.272 C 2678.802 660.896, 2681.880 664.721, 2683.566 666.772 C 2685.252 668.822, 2687.704 672.075, 2689.016 674 C 2690.327 675.925, 2691.976 677.855, 2692.680 678.289 C 2693.385 678.723, 2695.138 681.085, 2696.576 683.539 C 2698.014 685.992, 2699.555 688, 2700.001 688 C 2700.796 688, 2705.529 693.937, 2711.500 702.422 C 2713.150 704.767, 2715.850 708.284, 2717.500 710.238 C 2719.150 712.192, 2722.300 716.108, 2724.500 718.941 C 2726.700 721.774, 2730.300 726.300, 2732.500 729 C 2736.725 734.184, 2740.760 739.352, 2748.898 750 C 2756.208 759.565, 2760.026 764.464, 2764.500 770.020 C 2766.700 772.752, 2770.300 777.243, 2772.500 780 C 2774.700 782.757, 2778.300 787.239, 2780.500 789.960 C 2782.700 792.682, 2786.300 797.220, 2788.500 800.046 C 2790.700 802.873, 2794.075 807.158, 2796 809.570 C 2797.925 811.982, 2801.750 816.953, 2804.500 820.616 C 2807.250 824.280, 2811.075 829.225, 2813 831.606 C 2822.082 842.838, 2828.716 851.585, 2832.639 857.500 C 2834.099 859.700, 2836.464 862.951, 2837.896 864.724 C 2839.328 866.497, 2841.977 869.872, 2843.782 872.224 C 2845.587 874.576, 2848.630 878.525, 2850.544 881 C 2852.459 883.475, 2854.807 886.797, 2855.762 888.383 C 2856.718 889.968, 2859.188 893.258, 2861.250 895.694 C 2863.313 898.129, 2865 900.510, 2865 900.984 C 2865 901.458, 2866.238 903.310, 2867.750 905.098 C 2870.318 908.134, 2875.194 919.959, 2878.637 931.500 C 2879.599 934.726, 2880.335 943.120, 2880.709 955.160 L 2881.290 973.819 2876.107 978.594 C 2873.256 981.220, 2869.703 984.112, 2868.212 985.022 C 2866.720 985.932, 2864.855 987.457, 2864.067 988.411 C 2863.279 989.365, 2860.931 991.015, 2858.850 992.076 C 2853.046 995.038, 2851.526 999.784, 2855.827 1001.521 C 2858.338 1002.535, 2882.954 1002.080, 2887.205 1000.940 C 2889.242 1000.394, 2892.167 998.896, 2893.705 997.610 C 2895.242 996.325, 2898.525 994.254, 2901 993.009 C 2912.455 987.244, 2925.096 975.145, 2926.924 968.197 C 2927.459 966.164, 2928.660 959.038, 2929.593 952.362 C 2931.252 940.485, 2931.243 939.950, 2929.148 927.457 C 2927.716 918.909, 2926.226 913.337, 2924.641 910.595 C 2923.339 908.343, 2921.495 904.121, 2920.544 901.213 C 2919.593 898.305, 2917.281 893.647, 2915.407 890.862 C 2913.533 888.077, 2912 885.204, 2912 884.476 C 2912 883.749, 2910.936 881.881, 2909.637 880.327 C 2908.337 878.772, 2906.251 875.475, 2905.002 873 C 2903.753 870.525, 2901.441 867.022, 2899.865 865.215 C 2898.289 863.409, 2897 861.558, 2897 861.102 C 2897 859.781, 2887.739 847.145, 2875.785 832.158 C 2873.743 829.596, 2870.368 825.360, 2868.285 822.744 C 2866.203 820.128, 2862.700 815.793, 2860.500 813.112 C 2858.300 810.430, 2854.475 805.660, 2852 802.512 C 2843.751 792.020, 2840.125 787.530, 2837.051 784 C 2835.375 782.075, 2833.248 779.375, 2832.325 778 C 2831.402 776.625, 2829.264 773.872, 2827.573 771.883 C 2825.883 769.893, 2822.475 765.683, 2820 762.527 C 2817.525 759.371, 2813.828 754.699, 2811.785 752.144 C 2809.743 749.590, 2806.368 745.360, 2804.285 742.744 C 2802.203 740.128, 2798.700 735.793, 2796.500 733.112 C 2794.300 730.430, 2790.475 725.660, 2788 722.512 C 2783.317 716.556, 2778 709.985, 2773.018 704 C 2771.416 702.075, 2768.844 698.848, 2767.303 696.829 C 2763.344 691.643, 2756.819 683.436, 2751.539 677 C 2749.057 673.975, 2745.909 669.842, 2744.542 667.816 C 2743.176 665.790, 2741.460 663.765, 2740.729 663.316 C 2739.998 662.867, 2738.319 660.925, 2736.999 659 C 2735.679 657.075, 2733.001 653.555, 2731.049 651.178 C 2721.383 639.408, 2719.200 636.703, 2715.500 631.906 C 2713.300 629.054, 2710.543 625.693, 2709.374 624.439 C 2708.205 623.184, 2706.209 620.659, 2704.940 618.829 C 2703.670 616.998, 2701.252 613.872, 2699.566 611.883 C 2697.880 609.893, 2694.475 605.683, 2692 602.527 C 2686.778 595.868, 2681.182 588.973, 2676.964 584 C 2670.225 576.054, 2667.245 572.318, 2665.002 569 C 2663.701 567.075, 2661.031 563.621, 2659.068 561.324 C 2657.106 559.027, 2653.700 554.803, 2651.500 551.937 C 2649.300 549.071, 2646.477 545.714, 2645.227 544.477 C 2643.978 543.241, 2641.953 540.855, 2640.727 539.176 C 2639.502 537.497, 2635.800 532.682, 2632.500 528.477 C 2629.200 524.271, 2625.464 519.406, 2624.197 517.665 C 2622.930 515.924, 2620.793 513.469, 2619.447 512.210 C 2618.101 510.950, 2617 509.542, 2617 509.080 C 2617 508.619, 2615.313 506.410, 2613.250 504.172 C 2611.188 501.934, 2607.250 497.092, 2604.500 493.413 C 2601.750 489.733, 2597.925 484.802, 2596 482.454 C 2594.075 480.106, 2590.700 475.833, 2588.500 472.959 C 2582.353 464.928, 2575.309 457.999, 2573.306 458.013 C 2572.313 458.019, 2567.225 462.117, 2562 467.118 M 470.728 562.250 C 468.314 564.587, 463.297 569.200, 459.579 572.500 C 455.861 575.800, 451.148 580.075, 449.106 582 C 447.063 583.925, 441.592 588.875, 436.946 593 C 432.301 597.125, 427.142 601.884, 425.483 603.574 C 423.823 605.265, 421.240 607.452, 419.742 608.433 C 418.073 609.527, 416.611 611.729, 415.967 614.121 C 414.373 620.042, 415.237 920.824, 416.879 931.500 C 418.221 940.224, 420.188 944.301, 422.813 943.801 C 424.050 943.565, 424.674 942.014, 425.151 937.990 C 425.509 934.970, 425.847 867.018, 425.901 786.984 C 425.994 650.354, 426.107 641.279, 427.750 638.366 C 429.541 635.190, 436.435 628.804, 471.586 597.757 C 495.396 576.727, 496.645 574.909, 491 569.500 C 489.350 567.919, 488 566.113, 488 565.487 C 488 563.094, 480.183 558, 476.512 558 C 475.745 558, 473.142 559.913, 470.728 562.250 M 2542.422 562.772 C 2539.629 565.372, 2533.554 570.730, 2528.922 574.677 C 2524.290 578.625, 2517.947 584.250, 2514.827 587.177 C 2511.707 590.105, 2506.982 594.452, 2504.327 596.838 C 2501.672 599.224, 2496.830 603.602, 2493.567 606.567 L 2487.634 611.958 2486.766 631.729 C 2485.471 661.215, 2486.440 908.840, 2487.904 922.500 C 2489.424 936.688, 2491.499 944.243, 2493.757 943.808 C 2494.676 943.631, 2495.852 941.925, 2496.386 939.994 C 2496.979 937.846, 2497.476 879.671, 2497.674 789 C 2497.852 707.875, 2498.222 640.524, 2498.497 639.332 C 2499.004 637.134, 2506.199 629.776, 2513.497 623.993 C 2517.764 620.612, 2528.632 611.071, 2535.701 604.500 C 2538.068 602.300, 2542.076 598.700, 2544.608 596.500 C 2547.140 594.300, 2550.436 591.375, 2551.933 590 C 2553.430 588.625, 2556.346 586.210, 2558.412 584.634 C 2565.777 579.017, 2567.940 572.501, 2563.422 569.541 C 2562.004 568.612, 2560.371 566.494, 2559.793 564.835 C 2559.030 562.648, 2557.515 561.293, 2554.288 559.909 C 2548.305 557.345, 2548.231 557.363, 2542.422 562.772 M 1795.276 590.250 C 1775.249 610.323, 1764.575 621.751, 1763.548 624.218 C 1762.175 627.514, 1762.004 643.728, 1762.031 767.218 C 1762.049 850.193, 1762.450 909.489, 1763.022 913.895 C 1764.455 924.939, 1769.041 945.170, 1770.722 947.866 C 1772.094 950.064, 1772.314 950.115, 1773.849 948.580 C 1775.364 947.065, 1775.541 934.681, 1776 797.715 C 1776.373 686.343, 1776.797 647.993, 1777.670 646.500 C 1778.314 645.400, 1793.097 630.325, 1810.522 613 C 1827.946 595.675, 1842.832 580.285, 1843.601 578.800 C 1845.896 574.370, 1845.304 572.924, 1838.497 566.314 C 1828.067 556.188, 1830.732 554.712, 1795.276 590.250 M 3866.787 590.750 C 3849.918 607.663, 3835.548 622.850, 3834.853 624.500 C 3833.865 626.848, 3833.509 655.219, 3833.219 755 C 3832.822 891.022, 3833.356 916.150, 3836.906 928.500 C 3838.013 932.350, 3839.736 938.421, 3840.736 941.992 C 3842.766 949.240, 3845.406 951.214, 3846.617 946.389 C 3846.996 944.880, 3847.350 877.687, 3847.403 797.073 C 3847.494 658.906, 3847.601 650.314, 3849.268 647.265 C 3850.240 645.486, 3865.484 629.615, 3883.143 611.997 C 3913.841 581.369, 3915.269 579.778, 3915.695 575.732 C 3916.129 571.594, 3915.995 571.372, 3909.639 565.750 C 3904.975 561.625, 3902.336 560, 3900.298 560 C 3897.903 560, 3892.640 564.829, 3866.787 590.750 M 3995.350 1056.994 C 3993.013 1057.937, 3991.540 1061.718, 3990.484 1069.487 C 3989.696 1075.290, 3988.150 1078.604, 3984.752 1081.777 L 3982.314 1084.053 3747.180 1084.277 L 3512.046 1084.500 3509.619 1087 C 3508.284 1088.375, 3506.888 1090.963, 3506.517 1092.750 L 3505.841 1096 3752.921 1096 L 4000 1096 4000 1076 C 4000 1054.859, 4000.058 1055.095, 3995.350 1056.994 M 570.171 1058.294 C 569.536 1059.059, 568.584 1063.859, 568.057 1068.960 C 567.091 1078.294, 565.938 1080.892, 561.775 1083.121 C 560.703 1083.694, 466.973 1084.040, 319.585 1084.014 L 79.143 1083.973 76.538 1086.236 C 74.965 1087.602, 73.696 1089.987, 73.335 1092.250 L 72.738 1096 324.725 1096 L 576.711 1096 577.348 1089.250 C 578.413 1077.973, 578.081 1062.718, 576.710 1060 C 575.266 1057.135, 571.868 1056.249, 570.171 1058.294 M 1225.098 1060.149 C 1224.494 1061.881, 1223.997 1065.594, 1223.994 1068.399 C 1223.991 1071.205, 1223.520 1075.187, 1222.948 1077.248 C 1220.888 1084.667, 1242.602 1084.059, 980.245 1084.035 C 850.585 1084.023, 743.469 1084.292, 742.210 1084.634 C 739.582 1085.346, 737 1089.716, 737 1093.450 L 737 1096 984.858 1096 L 1232.715 1096 1233.358 1089.853 C 1234.357 1080.287, 1234.114 1061.081, 1232.965 1058.934 C 1231.195 1055.627, 1226.417 1056.365, 1225.098 1060.149 M 1920.635 1059.250 C 1919.860 1060.487, 1918.917 1064.396, 1918.542 1067.936 C 1917.786 1075.060, 1916.401 1078.369, 1912.750 1081.779 L 1910.309 1084.058 1676.583 1084.015 C 1459.471 1083.975, 1442.655 1084.091, 1440.014 1085.651 C 1437.012 1087.424, 1435 1090.793, 1435 1094.047 C 1435 1095.979, 1437.641 1096, 1680.875 1096 L 1926.750 1096 1927.325 1093.126 C 1928.608 1086.709, 1929.194 1062.455, 1928.130 1059.750 C 1926.754 1056.249, 1922.687 1055.978, 1920.635 1059.250 M 2642.063 1058.424 C 2641.369 1059.260, 2640.474 1063.894, 2640.073 1068.722 C 2639.251 1078.609, 2638.027 1081.659, 2634.311 1083.072 C 2632.666 1083.697, 2545.726 1084.035, 2392.345 1084.012 C 2126.135 1083.972, 2148.102 1083.371, 2146.052 1090.752 C 2145.480 1092.813, 2145.009 1094.838, 2145.006 1095.250 C 2145.003 1095.662, 2258.334 1096, 2396.853 1096 L 2648.707 1096 2649.353 1088.349 C 2650.393 1076.043, 2650.092 1062.740, 2648.710 1060 C 2647.230 1057.064, 2643.856 1056.264, 2642.063 1058.424 M 3297.432 1058.110 C 3297.015 1058.784, 3296.328 1063.422, 3295.905 1068.418 C 3294.970 1079.462, 3294.540 1080.669, 3290.874 1082.565 C 3288.340 1083.875, 3259.217 1084.052, 3051.567 1084.015 L 2815.144 1083.972 2812.538 1086.236 C 2810.965 1087.602, 2809.696 1089.987, 2809.335 1092.250 L 2808.738 1096 3056.719 1096 L 3304.701 1096 3305.350 1086.846 C 3306.343 1072.856, 3306.103 1062.764, 3304.712 1060 C 3303.334 1057.261, 3298.700 1056.059, 3297.432 1058.110" stroke="none" fill="#ffffff" fill-rule="evenodd"/>
</svg>